<svg version="1.2" xmlns="http://www.w3.org/2000/svg" viewBox="0 0 512 512" width="512" height="512"><style>.a{fill:#00646a}.b{fill:#183c5c}.c{paint-order:stroke fill markers;stroke:#183c5c;stroke-width: 4;stroke-linejoin: round;;fill:#fff}</style><path class="a" d="m115.4 138.6c-56.4 34.9-54 64.1-57.2 75-1.9 6.6-4.1 11-11.6 11.7-6.4 0.6-6-9.4-2.9-19.7 4.3-14.7 20.3-61.1 87.3-86.5 49.7-18.7 104.5-14.9 104.5-14.9 0 0-76.1 7.1-120.1 34.4zm-81.7 104.2c-0.8-5.2 3.2-10 8.1-10.4 5.8-0.4 7 3.7 9 7.3 3 5.6 3.2 15.2-5 15.2-7.3 0-11.5-8.2-12.1-12.1zm313.6-83.2c30.5 35.7 24.4 75.1 24.4 75.1 0 0 0.2-30.1-39-74.8-20.8-23.7-69.4-49.7-69.4-49.7 0 0 55.4 16.1 84 49.4zm4.1 150.6c15.1-25.9 20.3-59.6 20.3-59.6 0 0-2.3 59.9-33.9 93.2-38.5 40.4-101.3 61.5-146.1 61.2-49.9-0.4-88.8-12.2-118.9-42.9-25.5-26-41.8-74.1-41.8-74.1 0 0 24.1 49.5 50.5 71.8 24.4 20.7 46.2 32.2 107 36.9 43.2 0.4 71.1-10.9 99.2-25.1 26.8-13.4 49.4-36.8 63.7-61.4z"/><path class="b" d="m211.5 379c-76 0-137.5-54.3-137.5-121.5 0-67.2 61.5-121.5 137.5-121.5 76 0 137.5 54.3 137.5 121.5 0 67.2-61.5 121.5-137.5 121.5z"/><path class="c" d="m224.5 321.4c-8.6 0-14.3-5.8-24.2-27l-52.1-107c-0.2-1-2.8-0.8-3 0l-46 106.1c-9.7 22.5-15.6 27.9-27.2 27.9-1.1 0-1.1 2.6 0 2.6 9.3 0 13.8-0.9 24.6-0.9 11 0 16.8 0.9 25.5 0.9 1.3 0 1.3-2.6 0-2.6-18.2 0-25.5-8.4-17.9-25.9l17.7-40.9h39.7l24.2 50.2c6.3 13.2 3.7 16.6-10.6 16.6-1.3 0-1.3 2.6 0 2.6 8.3 0 14.1-0.9 23.4-0.9 8.2 0 17.5 0.9 25.9 0.9 1.1 0 1.1-2.6 0-2.6zm-100.7-71.7l16.9-38.9 18.6 38.9zm250.2 71.7c-18.2 0-35.5-18.6-70.7-71.9 12.8-7.4 21.8-20.1 21.8-34 0-16.8-13.4-27.2-38.2-27.2-7.8 0-19 1.3-26.8 1.3-9.9 0-18.8-0.6-25.9-0.6-0.7 0-0.7 2.6 0 2.6 14.9 0 17.5 2.5 17.5 14.9v100c0 12.5-2.8 14.9-17.7 14.9-0.9 0-0.9 2.6 0 2.6 7.1 0 16.2-0.4 26.1-0.4 10.4 0 19 0.4 26.1 0.4 0.9 0 0.9-2.6 0-2.6-15.1 0-17.5-2.4-17.5-14.9v-51c3.3 0.2 7.4 0.4 10.6 0.4 3.3 0 6.5-0.4 9.5-1 26.6 43 46.9 69.1 53.8 69.1h31.4c0.6 0 0.6-2.6 0-2.6zm-105.3-71.5v-43c0-13 3.7-14.9 14.1-14.9 13.8 0 24.4 6.9 24.4 31.3 0 20.3-7.3 27.5-25.7 27.5-3.7 0-8.7-0.5-12.8-0.9z"/><path class="b" d="m486.9 189.9c0-1.3-0.5-2-2.5-2h-101.1c-1 0-1 2.7 0 2.7 17.1 0 19.8 2.6 19.8 15.2v102.3c0 12.8-2.9 15.2-20.8 15.2-0.7 0-0.7 2.7 0 2.7 8.4 0 19.3-0.4 30.5-0.4 15.9 0 28.3 0.4 39.2 0.4 0.7 0 0.7-2.7 0-2.7-25.1 0-29-2.8-29-16.1v-47.9h22c18.9 0 27 5.9 27 18.5 0 0.7 3 0.7 3 0 0-7.7-0.5-14.1-0.5-21 0-5.5 0.3-9.5 0.3-18.5 0-0.7-3-0.7-3 0 0 10.6-7.9 15.9-26 15.9h-22.8v-48.2c0-9.9 3.9-12.8 18.3-12.8h12.7c17.1 0 28 8.6 30.4 24.8 0.3 0.8 3 0.6 3-0.3z"/></svg>